<?xml version="1.0" encoding="UTF-8" standalone="no"?><svg xmlns="http://www.w3.org/2000/svg" xmlns:xlink="http://www.w3.org/1999/xlink" contentStyleType="text/css" height="512px" preserveAspectRatio="none" style="width:491px;height:512px;background:#FFFFFF;" version="1.1" viewBox="0 0 491 512" width="491px" zoomAndPan="magnify"><defs/><g><text fill="#000000" font-family="sans-serif" font-size="14" font-weight="bold" lengthAdjust="spacing" textLength="207" x="135.25" y="22.9951">Skill's Project Data Model</text><!--class Person--><g id="elem_Person"><rect codeLine="3" fill="#F1F1F1" height="96.8906" id="Person" rx="2.5" ry="2.5" style="stroke:#181818;stroke-width:0.5;" width="164" x="320.5" y="234.2969"/><ellipse cx="373.75" cy="250.2969" fill="#ADD1B2" rx="11" ry="11" style="stroke:#181818;stroke-width:1.0;"/><path d="M372.5469,251.1719 L374,251.1719 L374,251.2813 C374,251.6875 374.0313,251.8438 374.1094,252 C374.2656,252.25 374.5469,252.4063 374.8438,252.4063 C375.0938,252.4063 375.3594,252.2656 375.5156,252.0469 C375.6406,251.8906 375.6719,251.7344 375.6719,251.2813 L375.6719,249.3594 C375.6719,249.2031 375.6719,249.1563 375.6563,249 C375.5938,248.5313 375.2813,248.2188 374.8281,248.2188 C374.5781,248.2188 374.3125,248.3594 374.1406,248.5781 C374.0313,248.75 374,248.9063 374,249.3594 L374,249.4844 L372.5469,249.4844 L372.5469,247.0781 L376.5313,247.0781 L376.5313,247.9375 C376.5313,248.3438 376.5625,248.5156 376.6406,248.6719 C376.8125,248.9219 377.0938,249.0781 377.375,249.0781 C377.6406,249.0781 377.9063,248.9375 378.0781,248.7188 C378.1875,248.5469 378.2188,248.4063 378.2188,247.9375 L378.2188,245.3906 L370.5938,245.3906 C370.1563,245.3906 370.0313,245.4063 369.875,245.5 C369.625,245.6563 369.4688,245.9531 369.4688,246.2344 C369.4688,246.5156 369.6094,246.7656 369.8281,246.9375 C369.9844,247.0469 370.1719,247.0781 370.5938,247.0781 L370.8438,247.0781 L370.8438,253.5938 L370.5938,253.5938 C370.1875,253.5938 370.0313,253.6094 369.875,253.7188 C369.625,253.8906 369.4688,254.1563 369.4688,254.4531 C369.4688,254.7188 369.6094,254.9688 369.8281,255.125 C369.9688,255.25 370.2031,255.2969 370.5938,255.2969 L378.5938,255.2969 L378.5938,252.7188 C378.5938,252.2813 378.5625,252.1406 378.4844,251.9844 C378.3125,251.7344 378.0313,251.5781 377.75,251.5781 C377.4844,251.5781 377.2188,251.6875 377.0469,251.9375 C376.9375,252.0938 376.9063,252.2344 376.9063,252.7188 L376.9063,253.5938 L372.5469,253.5938 L372.5469,251.1719 Z " fill="#000000"/><text fill="#000000" font-family="sans-serif" font-size="14" lengthAdjust="spacing" textLength="49" x="394.25" y="255.1436">Person</text><line style="stroke:#181818;stroke-width:0.5;" x1="321.5" x2="483.5" y1="266.2969" y2="266.2969"/><text fill="#000000" font-family="sans-serif" font-size="14" lengthAdjust="spacing" textLength="152" x="326.5" y="283.292">name String required</text><text fill="#000000" font-family="sans-serif" font-size="14" lengthAdjust="spacing" textLength="151" x="326.5" y="299.5889">email String required</text><text fill="#000000" font-family="sans-serif" font-size="14" lengthAdjust="spacing" textLength="125" x="326.5" y="315.8857">manager Boolean</text><line style="stroke:#181818;stroke-width:0.5;" x1="321.5" x2="483.5" y1="323.1875" y2="323.1875"/></g><!--class Skill--><g id="elem_Skill"><rect codeLine="9" fill="#F1F1F1" height="80.5938" id="Skill" rx="2.5" ry="2.5" style="stroke:#181818;stroke-width:0.5;" width="164" x="121.5" y="242.2969"/><ellipse cx="184.25" cy="258.2969" fill="#ADD1B2" rx="11" ry="11" style="stroke:#181818;stroke-width:1.0;"/><path d="M183.0469,259.1719 L184.5,259.1719 L184.5,259.2813 C184.5,259.6875 184.5313,259.8438 184.6094,260 C184.7656,260.25 185.0469,260.4063 185.3438,260.4063 C185.5938,260.4063 185.8594,260.2656 186.0156,260.0469 C186.1406,259.8906 186.1719,259.7344 186.1719,259.2813 L186.1719,257.3594 C186.1719,257.2031 186.1719,257.1563 186.1563,257 C186.0938,256.5313 185.7813,256.2188 185.3281,256.2188 C185.0781,256.2188 184.8125,256.3594 184.6406,256.5781 C184.5313,256.75 184.5,256.9063 184.5,257.3594 L184.5,257.4844 L183.0469,257.4844 L183.0469,255.0781 L187.0313,255.0781 L187.0313,255.9375 C187.0313,256.3438 187.0625,256.5156 187.1406,256.6719 C187.3125,256.9219 187.5938,257.0781 187.875,257.0781 C188.1406,257.0781 188.4063,256.9375 188.5781,256.7188 C188.6875,256.5469 188.7188,256.4063 188.7188,255.9375 L188.7188,253.3906 L181.0938,253.3906 C180.6563,253.3906 180.5313,253.4063 180.375,253.5 C180.125,253.6563 179.9688,253.9531 179.9688,254.2344 C179.9688,254.5156 180.1094,254.7656 180.3281,254.9375 C180.4844,255.0469 180.6719,255.0781 181.0938,255.0781 L181.3438,255.0781 L181.3438,261.5938 L181.0938,261.5938 C180.6875,261.5938 180.5313,261.6094 180.375,261.7188 C180.125,261.8906 179.9688,262.1563 179.9688,262.4531 C179.9688,262.7188 180.1094,262.9688 180.3281,263.125 C180.4688,263.25 180.7031,263.2969 181.0938,263.2969 L189.0938,263.2969 L189.0938,260.7188 C189.0938,260.2813 189.0625,260.1406 188.9844,259.9844 C188.8125,259.7344 188.5313,259.5781 188.25,259.5781 C187.9844,259.5781 187.7188,259.6875 187.5469,259.9375 C187.4375,260.0938 187.4063,260.2344 187.4063,260.7188 L187.4063,261.5938 L183.0469,261.5938 L183.0469,259.1719 Z " fill="#000000"/><text fill="#000000" font-family="sans-serif" font-size="14" lengthAdjust="spacing" textLength="30" x="204.75" y="263.1436">Skill</text><line style="stroke:#181818;stroke-width:0.5;" x1="122.5" x2="284.5" y1="274.2969" y2="274.2969"/><text fill="#000000" font-family="sans-serif" font-size="14" lengthAdjust="spacing" textLength="152" x="127.5" y="291.292">name String required</text><text fill="#000000" font-family="sans-serif" font-size="14" lengthAdjust="spacing" textLength="130" x="127.5" y="307.5889">description String</text><line style="stroke:#181818;stroke-width:0.5;" x1="122.5" x2="284.5" y1="314.8906" y2="314.8906"/></g><!--class SkillLevel--><g id="elem_SkillLevel"><rect codeLine="14" fill="#F1F1F1" height="96.8906" id="SkillLevel" rx="2.5" ry="2.5" style="stroke:#181818;stroke-width:0.5;" width="218" x="210.5" y="408.2969"/><ellipse cx="281.25" cy="424.2969" fill="#ADD1B2" rx="11" ry="11" style="stroke:#181818;stroke-width:1.0;"/><path d="M280.0469,425.1719 L281.5,425.1719 L281.5,425.2813 C281.5,425.6875 281.5313,425.8438 281.6094,426 C281.7656,426.25 282.0469,426.4063 282.3438,426.4063 C282.5938,426.4063 282.8594,426.2656 283.0156,426.0469 C283.1406,425.8906 283.1719,425.7344 283.1719,425.2813 L283.1719,423.3594 C283.1719,423.2031 283.1719,423.1563 283.1563,423 C283.0938,422.5313 282.7813,422.2188 282.3281,422.2188 C282.0781,422.2188 281.8125,422.3594 281.6406,422.5781 C281.5313,422.75 281.5,422.9063 281.5,423.3594 L281.5,423.4844 L280.0469,423.4844 L280.0469,421.0781 L284.0313,421.0781 L284.0313,421.9375 C284.0313,422.3438 284.0625,422.5156 284.1406,422.6719 C284.3125,422.9219 284.5938,423.0781 284.875,423.0781 C285.1406,423.0781 285.4063,422.9375 285.5781,422.7188 C285.6875,422.5469 285.7188,422.4063 285.7188,421.9375 L285.7188,419.3906 L278.0938,419.3906 C277.6563,419.3906 277.5313,419.4063 277.375,419.5 C277.125,419.6563 276.9688,419.9531 276.9688,420.2344 C276.9688,420.5156 277.1094,420.7656 277.3281,420.9375 C277.4844,421.0469 277.6719,421.0781 278.0938,421.0781 L278.3438,421.0781 L278.3438,427.5938 L278.0938,427.5938 C277.6875,427.5938 277.5313,427.6094 277.375,427.7188 C277.125,427.8906 276.9688,428.1563 276.9688,428.4531 C276.9688,428.7188 277.1094,428.9688 277.3281,429.125 C277.4688,429.25 277.7031,429.2969 278.0938,429.2969 L286.0938,429.2969 L286.0938,426.7188 C286.0938,426.2813 286.0625,426.1406 285.9844,425.9844 C285.8125,425.7344 285.5313,425.5781 285.25,425.5781 C284.9844,425.5781 284.7188,425.6875 284.5469,425.9375 C284.4375,426.0938 284.4063,426.2344 284.4063,426.7188 L284.4063,427.5938 L280.0469,427.5938 L280.0469,425.1719 Z " fill="#000000"/><text fill="#000000" font-family="sans-serif" font-size="14" lengthAdjust="spacing" textLength="68" x="301.75" y="429.1436">SkillLevel</text><line style="stroke:#181818;stroke-width:0.5;" x1="211.5" x2="427.5" y1="440.2969" y2="440.2969"/><text fill="#000000" font-family="sans-serif" font-size="14" lengthAdjust="spacing" textLength="62" x="216.5" y="457.292">skill Skill</text><text fill="#000000" font-family="sans-serif" font-size="14" lengthAdjust="spacing" textLength="103" x="216.5" y="473.5889">person Person</text><line style="stroke:#181818;stroke-width:0.5;" x1="211.5" x2="427.5" y1="480.8906" y2="480.8906"/><text fill="#000000" font-family="sans-serif" font-size="14" lengthAdjust="spacing" textLength="206" x="216.5" y="497.8857">value Integer min(0) max(10)</text></g><!--class SkillPrerequisite--><g id="elem_SkillPrerequisite"><rect codeLine="20" fill="#F1F1F1" height="96.8906" id="SkillPrerequisite" rx="2.5" ry="2.5" style="stroke:#181818;stroke-width:0.5;" width="279" x="7" y="52.2969"/><ellipse cx="83.75" cy="68.2969" fill="#ADD1B2" rx="11" ry="11" style="stroke:#181818;stroke-width:1.0;"/><path d="M82.5469,69.1719 L84,69.1719 L84,69.2813 C84,69.6875 84.0313,69.8438 84.1094,70 C84.2656,70.25 84.5469,70.4063 84.8438,70.4063 C85.0938,70.4063 85.3594,70.2656 85.5156,70.0469 C85.6406,69.8906 85.6719,69.7344 85.6719,69.2813 L85.6719,67.3594 C85.6719,67.2031 85.6719,67.1563 85.6563,67 C85.5938,66.5313 85.2813,66.2188 84.8281,66.2188 C84.5781,66.2188 84.3125,66.3594 84.1406,66.5781 C84.0313,66.75 84,66.9063 84,67.3594 L84,67.4844 L82.5469,67.4844 L82.5469,65.0781 L86.5313,65.0781 L86.5313,65.9375 C86.5313,66.3438 86.5625,66.5156 86.6406,66.6719 C86.8125,66.9219 87.0938,67.0781 87.375,67.0781 C87.6406,67.0781 87.9063,66.9375 88.0781,66.7188 C88.1875,66.5469 88.2188,66.4063 88.2188,65.9375 L88.2188,63.3906 L80.5938,63.3906 C80.1563,63.3906 80.0313,63.4063 79.875,63.5 C79.625,63.6563 79.4688,63.9531 79.4688,64.2344 C79.4688,64.5156 79.6094,64.7656 79.8281,64.9375 C79.9844,65.0469 80.1719,65.0781 80.5938,65.0781 L80.8438,65.0781 L80.8438,71.5938 L80.5938,71.5938 C80.1875,71.5938 80.0313,71.6094 79.875,71.7188 C79.625,71.8906 79.4688,72.1563 79.4688,72.4531 C79.4688,72.7188 79.6094,72.9688 79.8281,73.125 C79.9688,73.25 80.2031,73.2969 80.5938,73.2969 L88.5938,73.2969 L88.5938,70.7188 C88.5938,70.2813 88.5625,70.1406 88.4844,69.9844 C88.3125,69.7344 88.0313,69.5781 87.75,69.5781 C87.4844,69.5781 87.2188,69.6875 87.0469,69.9375 C86.9375,70.0938 86.9063,70.2344 86.9063,70.7188 L86.9063,71.5938 L82.5469,71.5938 L82.5469,69.1719 Z " fill="#000000"/><text fill="#000000" font-family="sans-serif" font-size="14" lengthAdjust="spacing" textLength="117" x="104.25" y="73.1436">SkillPrerequisite</text><line style="stroke:#181818;stroke-width:0.5;" x1="8" x2="285" y1="84.2969" y2="84.2969"/><text fill="#000000" font-family="sans-serif" font-size="14" lengthAdjust="spacing" textLength="62" x="13" y="101.292">skill Skill</text><text fill="#000000" font-family="sans-serif" font-size="14" lengthAdjust="spacing" textLength="124" x="13" y="117.5889">requiredSkill Skill</text><line style="stroke:#181818;stroke-width:0.5;" x1="8" x2="285" y1="124.8906" y2="124.8906"/><text fill="#000000" font-family="sans-serif" font-size="14" lengthAdjust="spacing" textLength="267" x="13" y="141.8857">requiredLevel Integer min(0) max(10)</text></g><!--class SkillValidation--><g id="elem_SkillValidation"><rect codeLine="26" fill="#F1F1F1" height="113.1875" id="SkillValidation" rx="2.5" ry="2.5" style="stroke:#181818;stroke-width:0.5;" width="134" x="324.5" y="44.2969"/><ellipse cx="339.5" cy="60.2969" fill="#ADD1B2" rx="11" ry="11" style="stroke:#181818;stroke-width:1.0;"/><path d="M338.2969,61.1719 L339.75,61.1719 L339.75,61.2813 C339.75,61.6875 339.7813,61.8438 339.8594,62 C340.0156,62.25 340.2969,62.4063 340.5938,62.4063 C340.8438,62.4063 341.1094,62.2656 341.2656,62.0469 C341.3906,61.8906 341.4219,61.7344 341.4219,61.2813 L341.4219,59.3594 C341.4219,59.2031 341.4219,59.1563 341.4063,59 C341.3438,58.5313 341.0313,58.2188 340.5781,58.2188 C340.3281,58.2188 340.0625,58.3594 339.8906,58.5781 C339.7813,58.75 339.75,58.9063 339.75,59.3594 L339.75,59.4844 L338.2969,59.4844 L338.2969,57.0781 L342.2813,57.0781 L342.2813,57.9375 C342.2813,58.3438 342.3125,58.5156 342.3906,58.6719 C342.5625,58.9219 342.8438,59.0781 343.125,59.0781 C343.3906,59.0781 343.6563,58.9375 343.8281,58.7188 C343.9375,58.5469 343.9688,58.4063 343.9688,57.9375 L343.9688,55.3906 L336.3438,55.3906 C335.9063,55.3906 335.7813,55.4063 335.625,55.5 C335.375,55.6563 335.2188,55.9531 335.2188,56.2344 C335.2188,56.5156 335.3594,56.7656 335.5781,56.9375 C335.7344,57.0469 335.9219,57.0781 336.3438,57.0781 L336.5938,57.0781 L336.5938,63.5938 L336.3438,63.5938 C335.9375,63.5938 335.7813,63.6094 335.625,63.7188 C335.375,63.8906 335.2188,64.1563 335.2188,64.4531 C335.2188,64.7188 335.3594,64.9688 335.5781,65.125 C335.7188,65.25 335.9531,65.2969 336.3438,65.2969 L344.3438,65.2969 L344.3438,62.7188 C344.3438,62.2813 344.3125,62.1406 344.2344,61.9844 C344.0625,61.7344 343.7813,61.5781 343.5,61.5781 C343.2344,61.5781 342.9688,61.6875 342.7969,61.9375 C342.6875,62.0938 342.6563,62.2344 342.6563,62.7188 L342.6563,63.5938 L338.2969,63.5938 L338.2969,61.1719 Z " fill="#000000"/><text fill="#000000" font-family="sans-serif" font-size="14" lengthAdjust="spacing" textLength="102" x="353.5" y="65.1436">SkillValidation</text><line style="stroke:#181818;stroke-width:0.5;" x1="325.5" x2="457.5" y1="76.2969" y2="76.2969"/><text fill="#000000" font-family="sans-serif" font-size="14" lengthAdjust="spacing" textLength="62" x="330.5" y="93.292">skill Skill</text><text fill="#000000" font-family="sans-serif" font-size="14" lengthAdjust="spacing" textLength="116" x="330.5" y="109.5889">validator Person</text><text fill="#000000" font-family="sans-serif" font-size="14" lengthAdjust="spacing" textLength="66" x="330.5" y="125.8857">url String</text><text fill="#000000" font-family="sans-serif" font-size="14" lengthAdjust="spacing" textLength="82" x="330.5" y="142.1826">type String</text><line style="stroke:#181818;stroke-width:0.5;" x1="325.5" x2="457.5" y1="149.4844" y2="149.4844"/></g><!--link Person to SkillLevel--><g id="link_Person_SkillLevel"><path codeLine="33" d="M379.38,331.7089 C369.712,351.7439 358.375,375.2359 348.183,396.3579 " fill="none" id="Person-to-SkillLevel" style="stroke:#181818;stroke-width:1.0;"/><polygon fill="#181818" points="342.496,408.1423,348.7061,404.4769,347.7112,397.3348,341.5011,401.0001,342.496,408.1423" style="stroke:#181818;stroke-width:1.0;"/><text fill="#000000" font-family="sans-serif" font-size="13" lengthAdjust="spacing" textLength="44" x="364.5" y="374.3638">person</text><text fill="#000000" font-family="sans-serif" font-size="13" lengthAdjust="spacing" textLength="8" x="367.7358" y="351.3724">1</text><text fill="#000000" font-family="sans-serif" font-size="13" lengthAdjust="spacing" textLength="20" x="324.3236" y="397.329">0.n</text></g><!--link Skill to SkillLevel--><g id="link_Skill_SkillLevel"><path codeLine="34" d="M230.404,323.6899 C245.146,345.5489 263.694,373.0499 280.044,397.2929 " fill="none" id="Skill-to-SkillLevel" style="stroke:#181818;stroke-width:1.0;"/><polygon fill="#181818" points="287.38,408.1708,287.3413,400.9598,280.6701,398.222,280.7088,405.433,287.38,408.1708" style="stroke:#181818;stroke-width:1.0;"/><text fill="#000000" font-family="sans-serif" font-size="13" lengthAdjust="spacing" textLength="23" x="266.5" y="374.3638">skill</text><text fill="#000000" font-family="sans-serif" font-size="13" lengthAdjust="spacing" textLength="8" x="225.768" y="342.9041">1</text><text fill="#000000" font-family="sans-serif" font-size="13" lengthAdjust="spacing" textLength="8" x="274.3006" y="397.3621">1</text></g><!--link SkillPrerequisite to Skill--><g id="link_SkillPrerequisite_Skill"><path codeLine="36" d="M133.887,149.3679 C131.359,167.0649 131.144,187.0299 137.5,204.2969 C141.02,213.8589 146.302,223.0449 152.374,231.5399 " fill="none" id="SkillPrerequisite-to-Skill" style="stroke:#181818;stroke-width:1.0;"/><polygon fill="#181818" points="160.415,241.9059,159.8983,234.7133,153.0602,232.4239,153.577,239.6165,160.415,241.9059" style="stroke:#181818;stroke-width:1.0;"/><text fill="#000000" font-family="sans-serif" font-size="13" lengthAdjust="spacing" textLength="23" x="138.5" y="200.3638">skill</text><text fill="#000000" font-family="sans-serif" font-size="13" lengthAdjust="spacing" textLength="20" x="110.707" y="169.3368">0.n</text><text fill="#000000" font-family="sans-serif" font-size="13" lengthAdjust="spacing" textLength="8" x="144.9108" y="231.3034">1</text></g><!--link SkillPrerequisite to Skill--><g id="link_SkillPrerequisite_Skill"><path codeLine="37" d="M161.625,149.5609 C169.405,174.1289 178.904,204.1269 186.888,229.3369 " fill="none" id="SkillPrerequisite-to-Skill-1" style="stroke:#181818;stroke-width:1.0;"/><polygon fill="#181818" points="190.907,242.0299,192.9091,235.1023,187.2844,230.5897,185.2823,237.5173,190.907,242.0299" style="stroke:#181818;stroke-width:1.0;"/><text fill="#000000" font-family="sans-serif" font-size="13" lengthAdjust="spacing" textLength="77" x="179.5" y="200.3638">requiredSkill</text><text fill="#000000" font-family="sans-serif" font-size="13" lengthAdjust="spacing" textLength="20" x="142.3137" y="169.2045">0.n</text><text fill="#000000" font-family="sans-serif" font-size="13" lengthAdjust="spacing" textLength="8" x="180.1588" y="231.1472">1</text></g><!--reverse link SkillValidation to Skill--><g id="link_SkillValidation_Skill"><path codeLine="39" d="M323.757,166.6569 C297.433,191.8609 268.122,219.9249 245.028,242.0359 " fill="none" id="SkillValidation-backto-Skill" style="stroke:#181818;stroke-width:1.0;"/><polygon fill="#181818" points="333.303,157.5169,326.2029,158.7775,324.6358,165.8162,331.7358,164.5556,333.303,157.5169" style="stroke:#181818;stroke-width:1.0;"/><text fill="#000000" font-family="sans-serif" font-size="13" lengthAdjust="spacing" textLength="23" x="298.5" y="200.3638">skill</text><text fill="#000000" font-family="sans-serif" font-size="13" lengthAdjust="spacing" textLength="8" x="317.7227" y="177.4072">1</text><text fill="#000000" font-family="sans-serif" font-size="13" lengthAdjust="spacing" textLength="20" x="230.2498" y="231.1542">0.n</text></g><!--reverse link SkillValidation to Person--><g id="link_SkillValidation_Person"><path codeLine="40" d="M395.728,170.9779 C397.016,192.0509 398.402,214.7349 399.583,234.0569 " fill="none" id="SkillValidation-backto-Person" style="stroke:#181818;stroke-width:1.0;"/><polygon fill="#181818" points="394.92,157.7629,391.2934,163.9957,395.6519,169.7405,399.2785,163.5077,394.92,157.7629" style="stroke:#181818;stroke-width:1.0;"/><text fill="#000000" font-family="sans-serif" font-size="13" lengthAdjust="spacing" textLength="56" x="399.5" y="200.3638">validator</text><text fill="#000000" font-family="sans-serif" font-size="13" lengthAdjust="spacing" textLength="8" x="386.8493" y="177.6832">1</text><text fill="#000000" font-family="sans-serif" font-size="13" lengthAdjust="spacing" textLength="20" x="377.7665" y="223.232">0.n</text></g><!--SRC=[ZL4zQyCm4DtrAmulJG8kzfgnT2caO0Xa5_4HhfKbLpgRXDB_NbkINTkDQRL9z-vzYOaLml6Tb7fmK5ZpXcU6PyaINas9IWZKJ7o30gqp6Zu5T4VBgbjYI_e25ZyQibZw0LQIrDr99RMye8KdOnHABRv6PY_-5t69xcofPkeyXFcIuO0j3ZIjL0t2YsRi9IlIcspRERXkycph0Svh-Zr_hqEw47B9N5ZqNXmnHe7b_k3rkF8UpAqOMiYTfA9I-gJtnTe0C7RmspysTkZTN_bMuwIe-7j9da2QxY397dKohMqV6n0Xm8ZB5oXlHOZVjGJ6sSu8_ozwLc8KcPJHGtTfEZK_brZ5nlJxd-Q-0G00]--></g></svg>